PathFileType	4	(X/Y/Z)	C:/Users/beibeiliu/ov580/test_trc/User2\sequence.23_training_dense_right.trc
DataRate	CameraRate	NumFrames	NumMarkers	Units	OrigDataRate	OrigDataStartFrame	OrigNumFrames
120	120	22	19	mm	120	97	257
Frame#	Time	ThumbCMC			ThumbMCP			ThumbIP			ThumbTip			IndexMCP			IndexPIP			IndexTip			MiddleMCP			MiddlePIP			MiddleTip			RingMCP			RingPIP			RingTip			PinkyMCP			PinkyPIP			PinkyTip			BackHand1			BackHand2			BackHand3	
		X0	Y0	Z0	X1	Y1	Z1	X2	Y2	Z2	X3	Y3	Z3	X4	Y4	Z4	X5	Y5	Z5	X6	Y6	Z6	X7	Y7	Z7	X8	Y8	Z8	X9	Y9	Z9	X10	Y10	Z10	X11	Y11	Z11	X12	Y12	Z12	X13	Y13	Z13	X14	Y14	Z14	X15	Y15	Z15	X16	Y16	Z16	X17	Y17	Z17	X18	Y18	Z18	
96	0.8	123.412	-40.6964	47.0582	94.8419	-39.3145	24.6062	67.3	-45.7687	5.02782	43.6557	-54.2098	-4.1388	82.6278	-88.0534	-5.00755	63.7598	-87.5616	-23.1323	38.1068	-89.6659	-36.0483	55.464	-95.8561	8.34594	28.7751	-92.2227	-3.81563	6.02955	-87.5001	-19.5491	42.3414	-74.2329	33.2295	37.254	-38.8214	35.0748	63.2581	-19.6986	48.5624	35.9972	-72.5071	54.3853	47.8437	-38.9135	52.6825	72.7287	-34.814	67.9844	90.2217	-97.2776	69.4953	110.972	-88.6498	93.3679	125.643	-81.6712	61.327	
97	0.808333	124.075	-39.0724	46.4814	97.6915	-37.916	24.717	69.761	-42.9995	1.16337	45.6272	-53.9575	-4.64	82.5644	-88.1976	-3.46027	62.4552	-86.5348	-22.8242	39.4004	-87.3995	-38.8475	57.8888	-95.441	6.09262	34.2391	-90.0026	-8.62387	5.57863	-84.8586	-23.6323	42.2842	-70.4387	29.5464	36.2861	-41.3786	34.1489	60.6655	-20.3503	51.3517	40.3845	-70.9069	50.2485	48.0778	-36.5518	56.3066	77.5962	-36.9624	70.414	88.0585	-98.0741	67.9889	111.204	-89.8291	93.103	126.018	-81.2219	58.1106	
98	0.816667	128.069	-36.6983	48.6953	102.076	-32.8691	22.9064	73.8049	-43.3493	3.10262	49.3666	-52.3953	-9.773	85.7535	-86.9906	-4.49955	65.2665	-86.3617	-23.2562	45.0832	-85.5443	-45.2453	60.4835	-94.9093	6.391	34.8924	-88.8554	-12.1078	13.5484	-83.0343	-27.3115	46.8576	-72.5417	28.5173	39.8202	-41.1989	29.8234	62.2318	-20.3574	46.9422	39.7725	-71.0554	51.2727	52.8926	-36.4886	49.4237	79.1323	-38.4669	65.3407	92.9029	-95.4674	66.4801	112.344	-87.5312	95.8168	127.658	-80.1505	55.4494	
99	0.825	130.818	-38.0097	47.6994	105.126	-34.0323	23.1055	77.1724	-44.3177	-0.961574	54.5672	-51.8362	-13.7371	92.4404	-83.4099	-8.43834	74.2334	-82.4719	-27.1964	49.624	-82.8967	-47.379	67.107	-92.6099	1.0984	42.8072	-86.2982	-13.9497	18.5053	-79.8969	-33.1781	50.1078	-69.2776	23.9301	43.2614	-37.6989	28.6299	65.3203	-18.9375	47.3936	41.467	-67.5298	45.8095	52.0393	-34.9359	50.7994	82.7003	-36.3147	62.8824	91.5635	-95.5338	63.8225	111.494	-88.66	95.2436	129.404	-78.6308	57.4098	
100	0.833333	133.064	-37.7318	50.2798	110.739	-32.0275	20.3503	84.0519	-38.8701	-2.21469	60.9669	-51.9831	-11.537	95.6238	-83.3363	-8.01232	78.6746	-81.8704	-31.3507	59.3367	-81.3702	-47.1912	71.6895	-90.7278	1.42309	46.7739	-84.7836	-18.0988	25.3371	-77.9974	-36.5053	54.7829	-70.4255	21.2316	48.7982	-36.6488	21.6431	72.9663	-17.2845	44.5388	47.9749	-68.6189	41.9694	55.531	-36.0223	42.3457	83.0333	-35.5655	62.2029	96.9043	-93.2839	62.4772	111.524	-87.9333	93.8679	132.348	-80.3951	58.5469	
101	0.841667	136.8	-38.303	47.5848	113.413	-34.7907	21.9284	88.8836	-41.3939	-6.37297	69.1367	-46.5077	-16.8416	104.441	-81.9458	-13.1439	88.7339	-80.1843	-32.7939	66.2836	-79.8806	-53.1979	76.9946	-90.1715	-2.78888	57.7361	-82.8985	-21.9981	32.1663	-75.3852	-44.7313	61.8118	-68.9668	14.758	54.3045	-37.2436	17.4753	76.1701	-17.679	39.1752	54.2782	-68.8473	37.9602	60.5306	-35.0623	40.1945	86.9773	-33.851	58.7758	98.8543	-92.8291	64.9771	115.269	-84.6721	93.3655	133.583	-80.4625	60.0484	
102	0.85	138.488	-39.4189	52.2674	119.866	-32.768	21.1244	94.6878	-40.8809	-7.35935	74.7761	-46.5641	-15.6404	110.508	-83.196	-9.58667	94.7859	-81.724	-31.6973	75.6004	-79.9457	-54.1275	84.2079	-91.0862	-2.34699	61.4892	-83.4908	-25.6708	36.6117	-74.3742	-47.646	65.5164	-71.7373	15.0822	58.4707	-39.4919	12.4317	78.0917	-18.4885	35.0046	55.8764	-66.7335	32.8613	62.6028	-35.4428	36.7009	87.3801	-33.8541	56.5736	100.847	-95.2675	59.5171	115.504	-86.8695	95.5086	135.813	-80.9465	62.2968	
103	0.858333	143.796	-37.5875	52.6813	123.412	-33.6616	22.333	100.175	-41.8126	-4.02859	78.3035	-51.9993	-20.0304	112.418	-84.9398	-10.8267	100.692	-81.993	-36.6249	84.5758	-79.6534	-59.533	87.3382	-91.678	-2.13133	69.3097	-83.201	-29.2831	49.002	-74.6043	-50.9136	69.2602	-72.3118	9.82426	60.7801	-43.0364	9.20026	78.5987	-21.2372	32.0853	56.8724	-67.5122	31.1429	64.9599	-36.9574	32.0065	90.6385	-33.5017	52.8503	101.642	-96.5886	61.3988	117.63	-87.5582	93.9495	142.213	-79.963	61.8015	
104	0.866667	142.04	-39.2719	56.2551	126.736	-33.7655	19.0578	102.65	-43.8393	-4.8287	82.7716	-51.2547	-17.5969	122.082	-85.1278	-10.8761	107.183	-84.094	-37.5245	87.514	-82.6539	-57.2688	94.6884	-93.0587	-7.90408	73.0505	-86.515	-28.6046	51.8411	-77.9527	-50.8065	71.2348	-75.8939	9.02914	65.3917	-43.4824	4.40938	79.7658	-23.7587	31.5058	60.6445	-71.9784	30.0879	66.5652	-37.8319	31.4891	96.0247	-36.8489	52.3494	105.801	-96.6865	63.8669	116.83	-86.9295	95.7391	139.372	-80.0444	65.1218	
105	0.875	144.271	-40.447	54.769	127.657	-34.0209	19.7264	104.237	-43.8723	-8.47049	83.712	-54.5128	-19.9154	123.254	-86.5764	-11.9053	110.962	-84.8881	-35.3532	94.404	-84.077	-56.7417	96.4951	-93.9595	-6.31642	78.3267	-88.1504	-27.5804	56.9058	-79.2106	-53.1604	75.1402	-76.298	4.84531	68.6743	-45.5364	1.84671	82.4309	-25.3298	24.5207	62.9482	-72.6277	27.8168	71.9371	-38.3674	28.9474	94.8014	-38.0063	49.9741	106.123	-97.146	60.6632	119.368	-87.7525	93.537	142.752	-79.9619	61.8045	
106	0.883333	147.699	-38.9366	53.8838	129.859	-34.4193	20.0959	106.146	-45.8818	-7.67119	86.3435	-53.5139	-18.21	122.288	-88.2098	-9.44377	111.218	-87.4966	-31.6171	94.8599	-86.7469	-57.7579	95.3723	-95.1718	-5.44615	77.6714	-89.6873	-30.3856	57.1231	-80.8724	-56.4348	76.9841	-78.96	4.68563	68.8793	-49.7824	0.324139	84.7388	-27.6732	22.0483	63.0527	-74.0655	29.311	70.2962	-38.1796	30.9531	91.3068	-37.6583	51.9424	103.568	-100.258	62.7543	115.226	-89.3096	96.5204	142.413	-82.7964	62.7911	
107	0.891667	146.925	-39.3087	55.1342	127.295	-38.3192	22.9732	106.31	-48.389	-6.62593	87.1464	-56.3693	-21.3773	126.36	-89.6631	-9.27482	115.385	-88.2579	-36.5116	96.4425	-86.5328	-60.8969	97.9742	-96.7829	-7.65467	81.3916	-90.2751	-31.0266	59.5309	-83.9687	-51.5621	78.4906	-80.2673	5.35489	66.9805	-48.2468	1.80725	85.5114	-29.1062	22.4758	62.8243	-72.1616	26.3302	68.9484	-40.7734	26.4329	95.3889	-39.4184	49.3018	103.245	-98.8421	63.1047	116.85	-89.697	92.7575	142.793	-82.3069	65.5186	
108	0.9	144.492	-40.6343	57.0013	127.998	-38.3577	19.8035	108.179	-44.707	-9.66842	86.9871	-57.5046	-20.4459	126.458	-89.7836	-7.5553	113.055	-89.0803	-36.8085	97.9557	-86.1756	-60.9744	102.037	-96.8889	-3.03036	79.1462	-92.6666	-28.0196	62.1203	-84.0707	-53.7714	76.8151	-79.9228	3.78359	66.5027	-49.9798	0.919869	83.9055	-28.2348	26.2167	63.4098	-71.2176	24.1928	70.2247	-42.0894	25.4486	93.8511	-38.7169	51.118	103.172	-97.8308	64.1763	118.768	-89.1426	92.7716	143.562	-83.8279	65.7852	
109	0.908333	145.999	-39.3913	54.968	128.039	-36.5217	23.0034	105.563	-46.6989	-8.59429	85.4666	-57.9922	-19.8401	127.748	-87.4055	-7.5109	114.318	-86.3662	-32.9493	96.0565	-86.4599	-60.1822	95.9258	-96.2713	-5.6483	82.1971	-89.599	-30.7491	59.6069	-84.6984	-52.04	74.1768	-80.6338	6.90389	64.6881	-52.2729	1.05369	81.8031	-28.6027	24.4487	64.935	-73.9306	24.3017	69.66	-40.2188	27.5599	93.4709	-40.6056	49.1618	105.164	-97.1939	63.1492	116.325	-90.1556	94.4901	141.681	-80.3859	66.552	
110	0.916667	144.375	-39.6088	51.6858	124.828	-34.5402	20.8029	105.437	-40.9893	-8.61959	83.5195	-55.0122	-23.3332	121.575	-86.1404	-6.82511	107.768	-83.8408	-35.4333	94.9266	-82.188	-59.4194	99.6588	-94.1516	-5.32855	75.3688	-87.6691	-32.1474	55.739	-82.2169	-54.149	74.7999	-80.2568	8.57751	66.6983	-46.5475	1.20067	80.4953	-27.7998	23.2743	61.9837	-73.8198	25.8461	68.2227	-41.6294	26.4528	89.9824	-36.8852	52.1177	104.381	-96.6781	63.8011	117.483	-86.4401	95.1558	142.62	-81.5838	62.9956	
111	0.925	139.477	-37.4076	53.9884	121.425	-30.898	23.7352	102.118	-36.5687	-5.99882	80.6338	-48.8485	-19.8925	118.943	-81.3926	-10.0317	105.013	-78.5475	-36.4759	90.0443	-75.1247	-59.8807	94.0807	-90.9489	-5.00498	76.2727	-83.913	-29.6445	51.0585	-77.5879	-54.9992	70.6849	-76.3484	9.18972	63.2802	-45.1367	4.81369	78.6821	-23.7202	30.6263	62.6875	-73.9039	28.6117	63.2409	-40.1582	29.6952	84.4144	-34.2325	51.6749	107.415	-95.2703	57.6949	116.022	-88.7479	92.9309	143.554	-77.4917	64.6702	
112	0.933333	137.034	-32.9246	54.0642	115.677	-29.6018	24.6754	95.2442	-33.2112	-2.94256	73.7741	-44.7914	-18.7677	117.336	-72.27	-11.7627	99.0523	-70.9126	-36.8581	84.4282	-68.018	-55.7786	90.9826	-83.8536	-10.2015	70.2677	-80.2652	-27.47	49.0112	-72.7094	-52.958	69.257	-70.4691	7.55975	57.8735	-39.2603	10.04	73.7715	-20.3095	37.8866	57.6393	-71.8404	30.5531	56.0504	-36.8288	35.2818	81.0417	-32.1897	55.6128	105.079	-96.0617	57.0995	118.089	-87.8245	90.1055	139.917	-72.8984	60.401	
113	0.941667	134.029	-25.2199	55.3925	111.115	-18.1304	25.2415	87.9616	-29.2051	-4.21282	68.2735	-37.4788	-16.5529	111.298	-66.544	-12.3632	98.1612	-60.8001	-35.6629	75.0709	-61.4484	-58.576	85.7103	-80.787	-5.37646	61.1846	-74.789	-29.6853	43.8263	-69.4151	-47.6955	65.8315	-65.6386	9.99232	48.9982	-38.0879	16.9972	67.9251	-16.8351	43.0048	53.4372	-68.6227	30.3637	53.742	-35.732	36.5798	72.1003	-27.6352	58.7491	104.76	-90.9577	54.1461	119.448	-82.5216	89.8991	139.073	-66.6417	60.194	
114	0.95	126.147	-20.9241	55.3194	103.453	-15.1378	29.6926	81.3649	-23.9728	3.98492	62.0572	-37.231	-13.8725	107.465	-56.7228	-14.1615	89.6484	-53.4775	-36.8505	69.5207	-53.2829	-56.6965	81.9958	-76.015	-8.05061	62.8158	-68.09	-27.6359	39.5966	-63.9728	-47.3289	62.7297	-62.5436	10.4705	45.0329	-34.7553	21.4892	57.117	-17.9079	46.2407	51.3867	-71.2083	32.2424	46.6528	-36.8754	41.8179	64.7488	-27.2046	62.9556	106.204	-88.7038	56.9412	121.415	-81.7346	83.1678	137.746	-59.4685	58.8565	
115	0.958333	121.753	-14.6927	60.6127	97.0762	-9.29174	30.6344	75.0365	-18.2472	4.10231	56.3105	-33.6872	-9.00325	103.417	-52.3997	-11.7579	85.3259	-46.6788	-36.4118	65.0472	-42.6852	-58.3171	83.0909	-69.6702	-9.33598	55.4867	-65.8046	-29.3311	33.6125	-59.5871	-50.029	60.4601	-64.5296	15.4342	42.8417	-36.2059	22.0682	52.6201	-18.6511	51.477	52.6472	-68.5889	31.4726	45.5005	-38.2754	43.567	62.9208	-26.9174	63.8744	106.727	-84.3304	55.2167	120.768	-77.8792	85.0373	135.31	-58.9705	56.7117	
116	0.966667	115.723	-15.809	61.3288	90.58	-8.49625	33.2196	68.3106	-16.4569	4.69987	52.2852	-27.8513	-6.96918	100.364	-45.6654	-11.6285	81.2982	-39.1182	-36.5714	57.7948	-39.5946	-54.2246	81.2975	-63.6939	-10.6594	53.14	-62.0871	-27.4249	30.2591	-59.8737	-45.0793	57.2769	-58.8769	14.7769	38.2654	-37.4805	27.0825	48.9307	-20.2357	54.3076	53.0192	-67.9935	30.9396	40.7164	-43.1998	44.8046	62.3633	-29.2985	67.1611	107.364	-81.1566	49.7415	124.13	-75.8142	85.9693	136.473	-51.1269	58.6051	
117	0.975	109.651	-12.4354	64.4005	84.5915	-3.90822	37.3684	63.9955	-17.6887	11.5208	46.4327	-26.2188	-8.29064	97.5899	-35.8779	-14.2208	78.8809	-32.0418	-33.1357	56.0075	-33.0388	-51.668	80.7334	-59.9027	-9.06492	58.4565	-57.101	-24.4858	29.6757	-57.2869	-43.6709	56.2693	-60.3819	17.1619	37.4527	-39.2154	30.3989	48.1528	-19.5254	60.6134	49.8337	-69.1903	33.2305	39.8541	-45.6	48.6234	63.3951	-33.4818	72.3339	109.484	-76.8874	49.1221	120.978	-74.8741	85.9971	131.719	-46.0881	55.3012	
